<?xml version="1.0" encoding="utf-8"?>
<!-- Generator: Adobe Illustrator 26.0.3, SVG Export Plug-In . SVG Version: 6.00 Build 0)  -->
<svg version="1.1" id="Illustration_00000006666761900500933340000016477234135699879338_"
	 xmlns="http://www.w3.org/2000/svg" xmlns:xlink="http://www.w3.org/1999/xlink" x="0px" y="0px" viewBox="0 0 800 600"
	 style="enable-background:new 0 0 800 600;" xml:space="preserve">
<style type="text/css">
	.st0{fill:none;stroke:#2635B5;stroke-linecap:round;stroke-linejoin:round;stroke-miterlimit:10;}
	.st1{fill:#BAC2FF;}
	.st2{fill:none;stroke:#BAC2FF;stroke-linecap:round;stroke-linejoin:round;stroke-miterlimit:10;}
	.st3{fill:#FFFFFF;stroke:#2635B5;stroke-linecap:round;stroke-linejoin:round;stroke-miterlimit:10;}
	.st4{fill:#343FFC;stroke:#2635B5;stroke-linecap:round;stroke-linejoin:round;stroke-miterlimit:10;}
	.st5{fill:#343FFC;}
	.st6{fill:#2635B5;}
	.st7{fill:#BAC2FF;stroke:#2635B5;stroke-linecap:round;stroke-linejoin:round;stroke-miterlimit:10;}
	.st8{fill:none;stroke:#FFFFFF;stroke-linecap:round;stroke-linejoin:round;stroke-miterlimit:10;}
	.st9{fill:#2635B5;stroke:#2635B5;stroke-linecap:round;stroke-linejoin:round;stroke-miterlimit:10;}
	.st10{clip-path:url(#SVGID_00000070090332647665560110000014419899589881853109_);}
	.st11{fill:#FFFFFF;}
	.st12{enable-background:new    ;}
	.st13{clip-path:url(#SVGID_00000123431800420465292480000017880326941712422278_);}
	.st14{fill:none;}
	.st15{fill:#B2CDF1;}
	.st16{clip-path:url(#SVGID_00000101099367069084566210000006654867906165396869_);}
	
		.st17{clip-path:url(#SVGID_00000101099367069084566210000006654867906165396869_);fill:none;stroke:#2635B5;stroke-linecap:round;stroke-linejoin:round;stroke-miterlimit:10;}
	.st18{fill:#EDEDED;}
	.st19{fill:#FFFFFF;stroke:#BAC2FF;stroke-linecap:round;stroke-linejoin:round;stroke-miterlimit:10;}
	
		.st20{clip-path:url(#SVGID_00000019664625034777706510000003867169169129334166_);fill:none;stroke:#2635B5;stroke-linecap:round;stroke-linejoin:round;stroke-miterlimit:10;}
	.st21{fill:none;stroke:#343FFC;stroke-linecap:round;stroke-linejoin:round;stroke-miterlimit:10;}
	.st22{clip-path:url(#SVGID_00000119081973118760113880000013105688223472811160_);}
	
		.st23{clip-path:url(#SVGID_00000106121878054263293270000001304472282607848365_);fill:none;stroke:#BAC2FF;stroke-linecap:round;stroke-linejoin:round;stroke-miterlimit:10;}
	
		.st24{clip-path:url(#SVGID_00000106121878054263293270000001304472282607848365_);fill:none;stroke:#2635B5;stroke-linecap:round;stroke-linejoin:round;stroke-miterlimit:10;}
	.st25{clip-path:url(#SVGID_00000022534915808206149720000016441239597094916786_);fill:#BAC2FF;}
	.st26{fill:#F4F3EA;}
	.st27{fill:#BDB6B6;}
	.st28{fill:#78401F;}
	.st29{fill:#041E0E;}
	.st30{fill:#BB860A;}
	.st31{fill:#003B4F;}
	.st32{fill:#A52420;}
	.st33{clip-path:url(#SVGID_00000023990214289159574260000007481174222123926657_);}
	.st34{clip-path:url(#SVGID_00000091726325147300828130000006855566871661848477_);}
	.st35{clip-path:url(#SVGID_00000001663241540836485550000011785874507298625966_);}
	.st36{clip-path:url(#SVGID_00000051353027832787945540000000387161559261488545_);}
	.st37{clip-path:url(#SVGID_00000061462415878002951040000013770988255073990017_);fill:#BAC2FF;}
	.st38{clip-path:url(#SVGID_00000061462415878002951040000013770988255073990017_);}
	.st39{fill:#FAF8F5;}
	
		.st40{clip-path:url(#SVGID_00000061462415878002951040000013770988255073990017_);fill:#FFFFFF;stroke:#2635B5;stroke-linecap:round;stroke-linejoin:round;stroke-miterlimit:10;}
	
		.st41{clip-path:url(#SVGID_00000061462415878002951040000013770988255073990017_);fill:none;stroke:#2635B5;stroke-linecap:round;stroke-linejoin:round;stroke-miterlimit:10;}
	
		.st42{clip-path:url(#SVGID_00000061462415878002951040000013770988255073990017_);fill:#FFFFFF;stroke:#BAC2FF;stroke-linecap:round;stroke-linejoin:round;stroke-miterlimit:10;}
	
		.st43{clip-path:url(#SVGID_00000147200207531758339860000010294314197052792759_);fill:#2635B5;stroke:#2635B5;stroke-linecap:round;stroke-linejoin:round;stroke-miterlimit:10;}
	.st44{clip-path:url(#SVGID_00000061467291817981152210000017232452450664940438_);}
	.st45{clip-path:url(#SVGID_00000061467291817981152210000017232452450664940438_);fill:#BAC2FF;}
	.st46{clip-path:url(#SVGID_00000016768124236190530680000002458603536214827440_);}
	.st47{clip-path:url(#SVGID_00000142178452587257737660000012354098409045746342_);}
	
		.st48{clip-path:url(#SVGID_00000061462415878002951040000013770988255073990017_);fill:#343FFC;stroke:#2635B5;stroke-linecap:round;stroke-linejoin:round;stroke-miterlimit:10;}
	.st49{clip-path:url(#SVGID_00000109728472123816957960000005379415541248374931_);}
	.st50{clip-path:url(#SVGID_00000173846914506093194970000009766390948578214319_);}
	.st51{fill:#D1E7F2;}
	.st52{fill:#FFFFFF;stroke:#2635B5;stroke-width:0.778;stroke-linecap:round;stroke-linejoin:round;stroke-miterlimit:10;}
	.st53{fill:none;stroke:#2635B5;stroke-width:1.2268;stroke-linecap:round;stroke-linejoin:round;stroke-miterlimit:10;}
	.st54{fill:url(#SVGID_00000018918527468343008420000004026392566542912654_);}
	.st55{fill:none;stroke:#BAC2FF;stroke-width:10;stroke-linecap:round;stroke-linejoin:round;stroke-miterlimit:10;}
	.st56{fill:#4E4E4E;}
	.st57{fill:#BDBDBD;}
	.st58{fill:#666666;}
	.st59{fill:#424242;}
	.st60{fill:#3F3F3F;}
	.st61{fill:url(#SVGID_00000034069951417031661930000007492851786427780766_);}
	.st62{fill:#363636;}
	.st63{fill:#222222;}
	.st64{clip-path:url(#SVGID_00000128452636807925570270000012509192684094771081_);}
	.st65{fill:#D3D2B4;}
	.st66{clip-path:url(#SVGID_00000009567472119304072740000006807084838140611490_);enable-background:new    ;}
	.st67{clip-path:url(#SVGID_00000128455802857281497020000006202096400993441450_);enable-background:new    ;}
	.st68{clip-path:url(#SVGID_00000138553258870413209260000008874860632991589774_);}
	.st69{clip-path:url(#SVGID_00000009572132728424329990000011073464738809579449_);enable-background:new    ;}
	.st70{clip-path:url(#SVGID_00000169516614383258125860000017857495088619221893_);enable-background:new    ;}
	.st71{clip-path:url(#SVGID_00000132800866798405747520000010182568808813821106_);enable-background:new    ;}
	.st72{clip-path:url(#SVGID_00000074442533531810441850000001782711304408329899_);enable-background:new    ;}
	.st73{clip-path:url(#SVGID_00000127725085501846441950000001461085343078432150_);enable-background:new    ;}
	.st74{clip-path:url(#SVGID_00000038384247165899698020000012214940797852078495_);enable-background:new    ;}
	.st75{clip-path:url(#SVGID_00000082327433126789048090000006319071264647484825_);enable-background:new    ;}
	.st76{clip-path:url(#SVGID_00000011015667999399896940000013449193309724015529_);enable-background:new    ;}
	.st77{clip-path:url(#SVGID_00000108991606656258467110000017802902515941776823_);enable-background:new    ;}
	.st78{clip-path:url(#SVGID_00000056398764679260937770000013291327882368546982_);enable-background:new    ;}
	.st79{clip-path:url(#SVGID_00000082359716224120244200000007592003872531803271_);enable-background:new    ;}
	.st80{clip-path:url(#SVGID_00000030449403636464910960000013540441902140298919_);enable-background:new    ;}
	.st81{clip-path:url(#SVGID_00000096750324153235408110000008329029898360638095_);enable-background:new    ;}
	.st82{clip-path:url(#SVGID_00000106833820801435021690000009476007011303574426_);enable-background:new    ;}
	.st83{clip-path:url(#SVGID_00000052810267051632267470000007806932265428981154_);enable-background:new    ;}
	.st84{clip-path:url(#SVGID_00000024688286650884182520000003686544150759872641_);enable-background:new    ;}
	.st85{clip-path:url(#SVGID_00000029016828296043589180000006710326786076729222_);enable-background:new    ;}
	.st86{clip-path:url(#SVGID_00000070118690161030435420000008042044482101179526_);enable-background:new    ;}
	.st87{clip-path:url(#SVGID_00000002366665448186478240000004089016007415904947_);enable-background:new    ;}
	.st88{clip-path:url(#SVGID_00000160889418039691474240000002875690764540884910_);enable-background:new    ;}
	.st89{clip-path:url(#SVGID_00000091702388958580776830000012306854454534603956_);enable-background:new    ;}
	.st90{clip-path:url(#SVGID_00000003806514173005596250000009877920496961767809_);enable-background:new    ;}
	.st91{clip-path:url(#SVGID_00000018235616162483126320000004373898163060364165_);enable-background:new    ;}
	.st92{clip-path:url(#SVGID_00000070831014024860219590000014880144298890182553_);enable-background:new    ;}
	.st93{clip-path:url(#SVGID_00000014613000842965266340000012833434826600892544_);enable-background:new    ;}
	.st94{clip-path:url(#SVGID_00000088109935987320326110000006193322837932350892_);enable-background:new    ;}
	.st95{clip-path:url(#SVGID_00000083769180536144088580000009108801839114591883_);enable-background:new    ;}
	.st96{clip-path:url(#SVGID_00000052807143030323564320000004480171590845700740_);}
	.st97{clip-path:url(#SVGID_00000118360394921099879740000012032090064154899087_);}
	.st98{clip-path:url(#SVGID_00000115488305802858818000000002004527366584739003_);}
	.st99{clip-path:url(#SVGID_00000056424612772238858730000000731448037063507843_);}
	.st100{clip-path:url(#SVGID_00000180364019041904709520000007263449072206863764_);}
	.st101{clip-path:url(#SVGID_00000158720420276143035660000011773025096184547490_);enable-background:new    ;}
	.st102{clip-path:url(#SVGID_00000127766016928007777470000000983764198256368025_);enable-background:new    ;}
	.st103{clip-path:url(#SVGID_00000088101409819193687780000004022201068162029478_);enable-background:new    ;}
	.st104{clip-path:url(#SVGID_00000172415321040866450800000008305243541347213220_);enable-background:new    ;}
	.st105{clip-path:url(#SVGID_00000043452483366187210440000001348365878916401554_);enable-background:new    ;}
	.st106{clip-path:url(#SVGID_00000151520968723491725020000002973549183981810058_);enable-background:new    ;}
	.st107{clip-path:url(#SVGID_00000087388766994616468960000003111395230751793817_);enable-background:new    ;}
	.st108{clip-path:url(#SVGID_00000181070267873405316860000002848970168283493809_);enable-background:new    ;}
	.st109{clip-path:url(#SVGID_00000051357047810807331280000010570511317210830251_);enable-background:new    ;}
	.st110{clip-path:url(#SVGID_00000127002425536119554320000008206560090975166365_);enable-background:new    ;}
	.st111{clip-path:url(#SVGID_00000029732107427952718080000004735596452244422054_);enable-background:new    ;}
	.st112{clip-path:url(#SVGID_00000093876114236088852900000014560416111087231149_);enable-background:new    ;}
	.st113{clip-path:url(#SVGID_00000046341600626076265620000009431499490541830806_);enable-background:new    ;}
	.st114{clip-path:url(#SVGID_00000014621294068156176310000012171284569914690959_);enable-background:new    ;}
	.st115{clip-path:url(#SVGID_00000151524956852596201880000009446267552069997714_);enable-background:new    ;}
	.st116{clip-path:url(#SVGID_00000072959494670174246470000000296549490734781845_);enable-background:new    ;}
	.st117{clip-path:url(#SVGID_00000108283411497642338570000007552403866726567861_);enable-background:new    ;}
	.st118{clip-path:url(#SVGID_00000140732652769717385020000010595366827161984133_);enable-background:new    ;}
	.st119{clip-path:url(#SVGID_00000067924238494217560110000008059180049482962101_);enable-background:new    ;}
	.st120{clip-path:url(#SVGID_00000156560211532542462870000004654816476623117443_);enable-background:new    ;}
	.st121{clip-path:url(#SVGID_00000102538612632950339900000017399316272807976844_);}
	.st122{clip-path:url(#SVGID_00000106840761980484614950000000538622029111058851_);enable-background:new    ;}
	.st123{clip-path:url(#SVGID_00000036229295078324715420000007623114459810270902_);enable-background:new    ;}
	.st124{clip-path:url(#SVGID_00000045582882617216263930000018402641591001300869_);enable-background:new    ;}
	.st125{clip-path:url(#SVGID_00000114769616673035374000000013781972368595874710_);enable-background:new    ;}
	.st126{clip-path:url(#SVGID_00000137853507109985751200000002313877374197452714_);}
	.st127{clip-path:url(#SVGID_00000113355588105512145830000009971312958348819593_);enable-background:new    ;}
	.st128{clip-path:url(#SVGID_00000106859556904438471810000013056441413920811705_);enable-background:new    ;}
	.st129{clip-path:url(#SVGID_00000170249818972737513730000014614207370356637572_);enable-background:new    ;}
	.st130{clip-path:url(#SVGID_00000132773934124193190100000014432832888529189800_);enable-background:new    ;}
	.st131{clip-path:url(#SVGID_00000004517531059576213440000003841185346825700238_);enable-background:new    ;}
	.st132{clip-path:url(#SVGID_00000037693562488210804750000001081495597331139216_);enable-background:new    ;}
	.st133{clip-path:url(#SVGID_00000048498792897504786250000015466882055139290790_);enable-background:new    ;}
	.st134{clip-path:url(#SVGID_00000011003300672028288890000013382846169977667458_);enable-background:new    ;}
	.st135{clip-path:url(#SVGID_00000011724537232552797470000018444346593486161828_);enable-background:new    ;}
	.st136{fill:#FFFFFF;stroke:#2635B5;stroke-width:0.6113;stroke-linecap:round;stroke-linejoin:round;stroke-miterlimit:10;}
	.st137{clip-path:url(#SVGID_00000030482191769938323300000007511760030907911078_);}
	.st138{clip-path:url(#SVGID_00000060011171012610460730000001914474422064039314_);}
	.st139{clip-path:url(#SVGID_00000043449534754995166430000005070748194625744800_);}
	.st140{clip-path:url(#SVGID_00000106132114233896297380000012063350814311624858_);}
	.st141{fill:none;stroke:#2831C3;stroke-linecap:round;stroke-linejoin:round;stroke-miterlimit:10;}
	
		.st142{fill:none;stroke:#2635B5;stroke-width:2;stroke-linecap:round;stroke-linejoin:round;stroke-miterlimit:10;stroke-dasharray:6;}
	.st143{fill:none;stroke:#2635B5;stroke-linecap:round;stroke-linejoin:round;}
	.st144{fill:none;stroke:#2635B5;stroke-linecap:round;stroke-linejoin:round;stroke-dasharray:3.2101,3.2101;}
</style>
<g>
	<g>
		<path class="st0" d="M683.6,309.8l27.6,16c2.4,1.4,2.4,4.8,0,6.2L385.5,521.3c-2.4,1.4-2.4,4.8,0,6.2l49.5,28.6"/>
		<g>
			<path class="st0" d="M385.5,527.5l49.5,28.6v3.3l-49.5-28.6c-1.8-1-2.2-3.1-1.4-4.7C384.5,526.6,384.9,527.1,385.5,527.5z"/>
		</g>
	</g>
	<g>
		<path class="st0" d="M234.4,366.8l138,80.2c2.4,1.4,2.4,4.8,0,6.2l-112,65.1"/>
		<g>
			<path class="st0" d="M372.4,456.5l-112,65.1v-3.3l112-65.1c0.6-0.4,1.1-0.9,1.4-1.4C374.6,453.4,374.2,455.5,372.4,456.5z"/>
		</g>
	</g>
	<polygon class="st1" points="424.3,313.3 417.7,313.3 421.1,311.4 	"/>
	<line class="st2" x1="421.1" y1="308.1" x2="385.1" y2="287.4"/>
	<line class="st2" x1="407.7" y1="274.2" x2="443.7" y2="295"/>
	<path class="st0" d="M712.7,330.4c-0.3-0.7-0.8-1.3-1.5-1.7l-27.6-16v-2.8l27.6,16C712.9,326.9,713.3,328.8,712.7,330.4z"/>
	<polygon class="st1" points="551.6,463.3 507.2,437.7 412.4,492.4 456.8,518 496.8,518 498.3,494.1 	"/>
	<path class="st1" d="M158.9,380.4c-0.3-0.4-1-0.7-1.6-0.7l-5.2,0.4l-10.1-6.2l-4.3,2.7l-1.3-0.8l-3.2,2l-1-0.6l-10.2,6.3l16.8,4.6
		l0.2-0.9l5.2,1.4l0.2-1.1l7,1.9l1.5-7.7l5.3-0.4C158.9,381.2,159.2,380.8,158.9,380.4z"/>
	<path class="st1" d="M174.5,343.6c-0.3-0.4-1-0.7-1.6-0.7l-5.2,0.4l-10.1-6.2l-4.3,2.7l-1.3-0.8l-3.2,2l-1-0.6l-10.2,6.3l16.8,4.6
		l0.2-0.9l5.2,1.4l0.2-1.1l7,1.9l1.5-7.7l5.3-0.4C174.5,344.4,174.8,344,174.5,343.6z"/>
	<path class="st1" d="M155.1,328.9c-0.3-0.4-1-0.7-1.6-0.7l-5.2,0.4l-10.1-6.2l-4.3,2.7l-1.3-0.8l-3.2,2l-1-0.6l-10.2,6.3l16.8,4.6
		l0.2-0.9l5.2,1.4l0.2-1.1l7,1.9l1.5-7.7l5.3-0.4C155.1,329.7,155.4,329.3,155.1,328.9z"/>
	<path class="st1" d="M500.7,225c-0.3-0.4-1-0.7-1.6-0.7l-5.2,0.4l-10.1-6.2l-4.3,2.7l-1.3-0.8l-3.2,2l-1-0.6l-10.2,6.3l16.8,4.6
		l0.2-0.9l5.2,1.4l0.2-1.1l7,1.9l1.5-7.7l5.3-0.4C500.6,225.8,500.9,225.4,500.7,225z"/>
	<path class="st1" d="M612.5,411.4c-0.3-0.4-1-0.7-1.6-0.7l-5.2,0.4l-10.1-6.2l-4.3,2.7l-1.3-0.8l-3.2,2l-1-0.6l-10.2,6.3l16.8,4.6
		l0.2-0.9l5.2,1.4l0.2-1.1l7,1.9l1.5-7.7l5.3-0.4C612.5,412.2,612.7,411.8,612.5,411.4z"/>
	<path class="st1" d="M633.4,398.4c-0.3-0.4-1-0.7-1.6-0.7l-5.2,0.4l-10.1-6.2l-4.3,2.7l-1.3-0.8l-3.2,2l-1-0.6l-10.2,6.3l16.8,4.6
		l0.2-0.9l5.2,1.4l0.2-1.1l7,1.9l1.5-7.7l5.3-0.4C633.4,399.3,633.7,398.9,633.4,398.4z"/>
	<path class="st0" d="M545.6,239.1L367.1,342.8c-3.7,2.2-8.3,2.2-12.1,0l-149.7-86.5V253L355,339.5c3.7,2.2,8.3,2.2,12.1,0
		l178.5-103.7c0.6-0.4,1.1-0.9,1.4-1.4C547.8,236,547.3,238.1,545.6,239.1z"/>
	<polygon class="st1" points="206.6,395.9 120.1,445.9 159.2,468.6 199.2,468.6 201.3,444.1 257.1,476.4 297.1,476.4 301.5,450.7 	
		"/>
	<g>
		<path class="st1" d="M491.3,368.1c13.5-8.4,23.7-17.5,31.9-28.4c0,0,0,0,0,0c0,0,0.1-0.1,0.1-0.2c0.7-0.9,1.4-1.9,2.1-2.9
			c-5-1.4-9.8-3.6-14.2-6.8c-1.3-0.9-2.5-1.8-3.8-2.9c-7.4,3.6-14.7,7.5-21.8,11.6l-25.2,14.7l-24.9-21.9c-0.2-0.1-0.4-0.2-0.6,0
			l-4.3,3.5c-1.2,1-1.6,2.4-0.8,3.6l5.6,9.1l-3.6,1.8c0,0,0,0,0,0c-0.1,0-0.1,0.1-0.2,0.1c-0.6,0.4-0.9,1-0.9,2
			c0,1.8,1.2,3.9,2.8,4.8c0.5,0.3,0.9,0.4,1.4,0.4c0.3,0,0.6-0.1,0.8-0.2c0,0,0.1-0.1,0.1-0.1c0.1,0,0.1-0.1,0.2-0.1l3.3-2.3
			l2.3,3.8l-3.5,1.8l0,0c0,0,0,0,0,0c-0.1,0-0.1,0.1-0.2,0.1c-0.6,0.4-0.9,1.1-0.9,2c0,1.4,0.8,3.1,1.9,4.1l-1.7,1l-0.7,0.4
			c-1.3,0.7-2.6,1.4-3.8,2c-3.3,1.6-6.4,3.1-8.8,6.6c-1.1,1.6-2.4,3.9-3.5,5.9c-0.7,1.2-1.3,2.3-1.8,3.2l-2.7,4.5
			c-0.2,0.3-0.4,0.7-0.5,1c0,0,0,0,0,0v0c-0.1,0.1-0.1,0.3-0.1,0.4c0,0.1-0.1,0.2-0.1,0.3c0,0.2-0.1,0.3-0.1,0.5
			c0,0.1-0.1,0.3-0.1,0.4c0,0.1,0,0.2,0,0.3c-0.1,0.7,0,1.4,0.1,2.1c0,0.1,0,0.2,0,0.2c0,0.2,0.1,0.3,0.1,0.5c0,0.1,0.1,0.3,0.1,0.4
			c0,0.1,0.1,0.2,0.2,0.3c0.1,0.2,0.2,0.3,0.2,0.5c0,0,0,0.1,0.1,0.1c0,0.1,0.1,0.1,0.1,0.2c0.1,0.1,0.1,0.2,0.2,0.3
			c0,0.1,0.1,0.1,0.1,0.2c0.1,0.1,0.2,0.2,0.2,0.3c0.1,0.1,0.2,0.3,0.3,0.4c0.1,0.1,0.2,0.2,0.3,0.3c0.1,0.1,0.3,0.3,0.4,0.4
			c0.1,0.1,0.2,0.1,0.3,0.2c0.2,0.1,0.3,0.2,0.5,0.3c0.1,0,0.2,0.1,0.2,0.1c0.2,0.1,0.4,0.2,0.6,0.3c0.1,0,0.1,0.1,0.2,0.1
			c0.2,0.1,0.4,0.2,0.7,0.2c0.1,0,0.1,0,0.2,0.1c0.2,0.1,0.5,0.1,0.7,0.1c0.1,0,0.1,0,0.2,0c0.3,0,0.6,0.1,0.9,0.1c0,0,0,0,0,0h0
			c3.9,0,7.8-0.5,11.5-1.3c3.8-0.9,7.5-2.2,10.9-3.9c1.1-0.6,2.3-1.2,3.5-1.9l24.6-14.3l4.7,0.9l-1.8,0.9l0,0c0,0,0,0,0,0
			c-0.1,0-0.1,0.1-0.2,0.1c-0.6,0.4-0.9,1-0.9,2c0,1.8,1.2,3.9,2.8,4.8c0.5,0.3,0.9,0.4,1.4,0.4c0.3,0,0.6-0.1,0.8-0.2
			c0,0,0.1-0.1,0.1-0.1c0.1,0,0.1-0.1,0.2-0.1l8.3-5.7l4,0.8l-2.1,1.1l0,0c0,0,0,0,0,0c-0.1,0-0.1,0.1-0.2,0.1c-0.6,0.4-0.9,1-0.9,2
			c0,1.8,1.2,3.9,2.8,4.8c0.5,0.3,0.9,0.4,1.4,0.4c0.3,0,0.6-0.1,0.8-0.2c0,0,0.1-0.1,0.1-0.1c0.1,0,0.1-0.1,0.2-0.1l8.5-5.9
			l12.8,2.6c0.6,0.1,1.3,0.2,2,0.2c1.2,0,2.5-0.2,3.5-0.6l6.1-2.5c0.2-0.1,0.3-0.2,0.3-0.4c0-0.2-0.1-0.4-0.3-0.4l-37.8-14.3
			c0.7-0.4,1.4-0.8,2-1.2C491,368.3,491.2,368.2,491.3,368.1z"/>
		<g>
			<g>
				<g>
					<path class="st0" d="M487.3,381.4c0,0.8-0.2,1.3-0.6,1.6l-0.2,0.1l-0.1,0.1c-0.5,0.3-1.2,0.2-1.9-0.2c-1.5-0.9-2.8-3-2.8-4.8
						c0-0.9,0.4-1.6,0.9-1.8c0.5-0.2,1.1-0.2,1.8,0.2C486.1,377.6,487.3,379.7,487.3,381.4z"/>
					<path class="st0" d="M486.7,383.1c-0.1,0-0.1,0.1-0.2,0.1"/>
				</g>
				<g>
					<path class="st3" d="M497.2,374.9c0,0.5-0.1,1-0.4,1.2l0,0l-0.4,0.3l-9.7,6.7c0.4-0.3,0.6-0.9,0.6-1.6c0-1.7-1.2-3.9-2.8-4.8
						c-0.7-0.4-1.4-0.5-1.8-0.2l10.7-5.5c0.4-0.2,1-0.2,1.6,0.1C496.2,371.8,497.2,373.5,497.2,374.9z"/>
					<path class="st0" d="M496.8,376.1c-0.1,0.1-0.2,0.2-0.4,0.3"/>
				</g>
				<line class="st0" x1="482.7" y1="376.4" x2="482.6" y2="376.5"/>
				<path class="st4" d="M487.3,381.4c0,0.3,0,0.5-0.1,0.8c-0.3,0-0.7-0.2-1-0.4c-1.5-0.9-2.8-3-2.8-4.8c0-0.3,0-0.5,0.1-0.8
					c0.3,0,0.7,0.2,1,0.4C486.1,377.6,487.3,379.7,487.3,381.4z"/>
			</g>
			<g>
				<g>
					<path class="st0" d="M446.8,358.3c0,0.8-0.2,1.3-0.6,1.6l-0.2,0.1l-0.1,0.1c-0.5,0.3-1.2,0.2-1.9-0.2c-1.5-0.9-2.8-3-2.8-4.8
						c0-0.9,0.4-1.6,0.9-1.8c0.5-0.2,1.1-0.2,1.8,0.2C445.6,354.4,446.8,356.6,446.8,358.3z"/>
					<path class="st0" d="M446.2,359.9c-0.1,0-0.1,0.1-0.2,0.1"/>
				</g>
				<g>
					<path class="st3" d="M456.7,351.7c0,0.5-0.1,1-0.4,1.2l0,0l-0.4,0.3l-9.7,6.7c0.4-0.3,0.6-0.9,0.6-1.6c0-1.7-1.2-3.9-2.8-4.8
						c-0.7-0.4-1.4-0.5-1.8-0.2l10.7-5.5c0.4-0.2,1-0.2,1.6,0.1C455.7,348.6,456.7,350.3,456.7,351.7z"/>
					<path class="st0" d="M456.3,353c-0.1,0.1-0.2,0.2-0.4,0.3"/>
				</g>
				<line class="st0" x1="442.2" y1="353.3" x2="442.1" y2="353.3"/>
				<path class="st4" d="M446.8,358.3c0,0.3,0,0.5-0.1,0.8c-0.3,0-0.7-0.2-1-0.4c-1.5-0.9-2.8-3-2.8-4.8c0-0.3,0-0.5,0.1-0.8
					c0.3,0,0.7,0.2,1,0.4C445.6,354.4,446.8,356.6,446.8,358.3z"/>
			</g>
			<g>
				<g>
					<path class="st0" d="M440,347.2c0,0.8-0.2,1.3-0.6,1.6l-0.2,0.1l-0.1,0.1c-0.5,0.3-1.2,0.2-1.9-0.2c-1.5-0.9-2.8-3-2.8-4.8
						c0-0.9,0.4-1.6,0.9-1.8c0.5-0.2,1.1-0.2,1.8,0.2C438.8,343.3,440,345.4,440,347.2z"/>
					<path class="st0" d="M439.4,348.8c-0.1,0-0.1,0.1-0.2,0.1"/>
				</g>
				<g>
					<path class="st3" d="M450,340.6c0,0.5-0.1,1-0.4,1.2l0,0l-0.4,0.3l-9.7,6.7c0.4-0.3,0.6-0.9,0.6-1.6c0-1.7-1.2-3.9-2.8-4.8
						c-0.7-0.4-1.4-0.5-1.8-0.2l10.7-5.5c0.4-0.2,1-0.2,1.6,0.1C449,337.5,450,339.2,450,340.6z"/>
					<path class="st0" d="M449.6,341.9c-0.1,0.1-0.2,0.2-0.4,0.3"/>
				</g>
				<line class="st0" x1="435.4" y1="342.2" x2="435.4" y2="342.2"/>
				<path class="st4" d="M440,347.2c0,0.3,0,0.5-0.1,0.8c-0.3,0-0.7-0.2-1-0.4c-1.5-0.9-2.8-3-2.8-4.8c0-0.3,0-0.5,0.1-0.8
					c0.3,0,0.7,0.2,1,0.4C438.8,343.3,440,345.4,440,347.2z"/>
			</g>
			<polyline class="st0" points="535.7,299.6 532.2,302.2 534.9,309.4 540.7,305.4 535.7,299.6 			"/>
			<path class="st3" d="M438.9,322.5l-4.7,3.8c-1.2,1-1.5,2.2-0.8,3.3l20.2,33.2l18.7-10.9L438.9,322.5"/>
			<g>
				<path class="st3" d="M546.7,284.5v23c0,1.5-0.3,2.9-1,4.2l-1.1,2.2c-11.3,22.4-27.9,37.7-49.6,50.4c-0.1,0.1-0.3,0.2-0.4,0.3
					L452.4,389c-1.2,0.7-2.5,1.4-3.7,2c-3.7,1.9-7.7,3.2-11.7,4.2c-4.1,0.9-8.2,1.4-12.4,1.4c-5.7,0-9.2-6.2-6.3-11.1l3-4.9
					c0.6-1,1.3-2.2,2-3.5c1.3-2.2,2.6-4.7,3.8-6.4c3.6-5.2,8.4-6.2,13.5-9.2l0.8-0.4l52.6-30.8c12.6-7.4,25.7-14,39.1-19.7
					c1.8-0.7,3-2.4,3.2-4.2l1.9-15.1c0.2-1.6,1-3,2.3-4l4.9-3.6C545.9,283.4,546.7,283.8,546.7,284.5z"/>
				<path class="st4" d="M534,330.8c-10.3,13.7-23.3,24.2-39.1,33.5c-0.1,0.1-0.3,0.2-0.4,0.3L452.4,389c-1.2,0.7-2.5,1.4-3.7,2
					c-3.7,1.9-7.7,3.2-11.7,4.2c-4.1,0.9-8.2,1.4-12.4,1.4c-5.3,0-8.7-5.3-6.9-10c0.9,0,2.9,0.2,4.6,2.5l0,0
					c1.4,1.9,3.7,2.9,6.1,2.6c3-0.5,6.9-1.4,10.8-3.3c7.4-3.7,71-41.5,79-46.5C530,334.3,533.6,331.2,534,330.8z"/>
			</g>
			<polyline class="st3" points="554.3,310.4 544.3,307.5 538.2,311.1 549.9,312.4 554.3,310.4 			"/>
			<path class="st4" d="M423.2,377.1c-0.1,0.5,3.3,4,10.1,2c0.6-0.2,1-0.1,1.4,0.2c1.4,0.9,1.1,3.1-0.5,3.6
				c-8.2,2.7-13.1-2.3-13.1-2.3"/>
			<path class="st0" d="M417.7,386.6c0.9,0,2.9,0.2,4.6,2.5c0,0,0,0,0,0c1.4,1.9,3.7,2.9,6.1,2.6c3-0.5,6.9-1.4,10.8-3.3
				c7.4-3.7,71-41.5,79-46.5c12.7-8.1,16-11.1,16-11.1"/>
			<g>
				<g>
					<path class="st0" d="M502.8,384.8c0,0.8-0.2,1.3-0.6,1.6l-0.2,0.1l-0.1,0.1c-0.5,0.3-1.2,0.2-1.9-0.2c-1.5-0.9-2.8-3-2.8-4.8
						c0-0.9,0.4-1.6,0.9-1.8c0.5-0.2,1.1-0.2,1.8,0.2C501.5,381,502.8,383.1,502.8,384.8z"/>
					<path class="st0" d="M502.1,386.5c-0.1,0-0.1,0.1-0.2,0.1"/>
				</g>
				<g>
					<path class="st3" d="M512.7,378.3c0,0.5-0.1,1-0.4,1.2l0,0l-0.4,0.3l-9.7,6.7c0.4-0.3,0.6-0.9,0.6-1.6c0-1.7-1.2-3.9-2.8-4.8
						c-0.7-0.4-1.4-0.5-1.8-0.2l10.7-5.5c0.4-0.2,1-0.2,1.6,0.1C511.7,375.2,512.7,376.9,512.7,378.3z"/>
					<path class="st0" d="M512.3,379.5c-0.1,0.1-0.2,0.2-0.4,0.3"/>
				</g>
				<line class="st0" x1="498.1" y1="379.8" x2="498.1" y2="379.9"/>
				<path class="st4" d="M502.8,384.8c0,0.3,0,0.5-0.1,0.8c-0.3,0-0.7-0.2-1-0.4c-1.5-0.9-2.8-3-2.8-4.8c0-0.3,0-0.5,0.1-0.8
					c0.3,0,0.7,0.2,1,0.4C501.5,381,502.8,383.1,502.8,384.8z"/>
			</g>
			<path class="st3" d="M537.9,379.6l-50.4-19.1c-0.4-0.1-0.8-0.1-1.2,0.1l-14.8,8.7c-1.1,0.7-0.9,2.4,0.4,2.7l53.7,10.9
				c1.9,0.4,4,0.2,5.7-0.5L537.9,379.6"/>
		</g>
		<g>
			<g>
				<g>
					<path class="st5" d="M454,372.6c-0.5,0.4-0.8,1.3-0.9,2c-0.1,0.7,0.3,1,0.9,0.7c0.6-0.3,1.2-1.3,1.1-2
						C455,372.5,454.5,372.2,454,372.6"/>
				</g>
			</g>
			<g>
				<path class="st5" d="M460.6,368.8c-0.5,0.4-0.8,1.3-0.9,2c-0.1,0.7,0.3,1,0.9,0.7c0.6-0.3,1.2-1.3,1.1-2
					C461.6,368.6,461.1,368.4,460.6,368.8"/>
			</g>
			<g>
				<path class="st5" d="M467.3,365c-0.5,0.4-0.8,1.3-0.9,2c-0.1,0.7,0.3,1,0.9,0.7c0.6-0.3,1.2-1.3,1.1-2
					C468.3,364.8,467.7,364.6,467.3,365"/>
			</g>
			<g>
				<path class="st5" d="M473.9,361.1c-0.5,0.4-0.8,1.3-0.9,2c-0.1,0.7,0.3,1,0.9,0.7c0.6-0.3,1.2-1.3,1.1-2
					C474.9,361,474.4,360.7,473.9,361.1"/>
			</g>
			<g>
				<path class="st5" d="M480.5,357.3c-0.5,0.4-0.8,1.3-0.9,2c-0.1,0.7,0.3,1,0.9,0.7c0.6-0.3,1.2-1.3,1.1-2
					C481.6,357.2,481,356.9,480.5,357.3"/>
			</g>
			<g>
				<path class="st5" d="M487.2,353.5c-0.5,0.4-0.8,1.3-0.9,2c-0.1,0.7,0.3,1,0.9,0.7c0.6-0.3,1.2-1.3,1.1-2
					C488.2,353.3,487.7,353.1,487.2,353.5"/>
			</g>
			<g>
				<path class="st5" d="M493.8,349.7c-0.5,0.4-0.8,1.3-0.9,2c-0.1,0.7,0.3,1,0.9,0.7c0.6-0.3,1.2-1.3,1.1-2
					C494.8,349.5,494.3,349.3,493.8,349.7"/>
			</g>
			<g>
				<path class="st5" d="M500.5,345.9c-0.5,0.4-0.8,1.3-0.9,2c-0.1,0.7,0.3,1,0.9,0.7c0.6-0.3,1.2-1.3,1.1-2
					C501.5,345.7,501,345.4,500.5,345.9"/>
			</g>
			<g>
				<path class="st5" d="M507.1,342c-0.5,0.4-0.8,1.3-0.9,2c-0.1,0.7,0.3,1,0.9,0.7c0.6-0.3,1.2-1.3,1.1-2
					C508.1,341.9,507.6,341.6,507.1,342"/>
			</g>
			<g>
				<path class="st5" d="M513.8,338.2c-0.5,0.4-0.8,1.3-0.9,2c-0.1,0.7,0.3,1,0.9,0.7c0.6-0.3,1.2-1.3,1.1-2
					C514.8,338.1,514.2,337.8,513.8,338.2"/>
			</g>
			<g>
				<g>
					<path class="st5" d="M520.4,334.4c-0.5,0.4-0.8,1.3-0.9,2c-0.1,0.7,0.3,1,0.9,0.7c0.6-0.3,1.2-1.3,1.1-2
						C521.4,334.2,520.9,334,520.4,334.4"/>
				</g>
			</g>
		</g>
	</g>
	<g>
		<polygon class="st1" points="552.2,210.5 553.1,208.3 536.5,198.7 513.9,202.2 507.9,215.4 524.5,224.9 554.5,224.9 		"/>
		<polygon class="st6" points="554.5,149.1 551.8,149.5 537.9,141.5 537.9,149.2 554.5,158.7 		"/>
		<polygon class="st5" points="537.9,149.2 537.9,215.3 554.5,224.9 554.5,158.7 		"/>
		<g>
			<polygon class="st7" points="551.8,140.8 551.8,149.5 527.5,135.6 527.5,126.8 			"/>
			<polyline class="st0" points="551.8,149.6 584.8,144.4 593.5,125.3 			"/>
			<line class="st0" x1="593.5" y1="125.3" x2="593.5" y2="116.6"/>
		</g>
		<line class="st0" x1="584.8" y1="135.7" x2="584.8" y2="144.4"/>
		<polyline class="st0" points="551.8,140.8 584.8,135.7 593.5,116.6 569.3,102.6 536.3,107.7 527.5,126.8 		"/>
		<polyline class="st2" points="583.1,118.2 566.5,108.6 543.9,112.1 537.9,125.2 554.5,134.8 577.1,131.3 583.1,118.2 		"/>
		<line class="st0" x1="583.1" y1="208.3" x2="583.1" y2="144.7"/>
		<polyline class="st0" points="583.1,208.3 577.1,221.4 554.5,224.9 537.9,215.3 		"/>
		<line class="st0" x1="537.9" y1="215.3" x2="537.9" y2="141.5"/>
		<line class="st0" x1="554.5" y1="224.9" x2="554.5" y2="149.1"/>
		<line class="st0" x1="577.1" y1="221.4" x2="577.1" y2="145.6"/>
		<polyline class="st0" points="554.5,169.3 546.4,164.6 537.9,159.7 		"/>
		<polyline class="st0" points="554.5,178.4 546.4,173.7 537.9,168.8 		"/>
		<polyline class="st0" points="554.5,211.6 546.4,206.9 537.9,202 		"/>
		<g>
			<polygon class="st0" points="557.5,191.8 573.9,189.3 573.9,180.7 557.5,183.2 			"/>
			<line class="st0" x1="562.1" y1="182.5" x2="562.1" y2="191.1"/>
		</g>
		<g>
			<polygon class="st0" points="557.5,177.5 573.9,175 573.9,166.4 557.5,168.9 			"/>
			<line class="st0" x1="562.1" y1="168.2" x2="562.1" y2="176.8"/>
		</g>
		<polygon class="st1" points="560.5,127.1 535.6,125.2 531.2,121.7 534,116.6 560.5,114.1 		"/>
		<path class="st7" d="M567.2,71.4c0-4.4-4.6-8.2-11.3-10.1v11.4c3.5,1,6.5,2.5,8.5,4.4C566.1,75.4,567.2,73.4,567.2,71.4z"/>
		<g>
			<polygon class="st3" points="567.2,97.7 560.5,101.6 553.9,97.7 560.5,93.9 			"/>
			<polygon class="st4" points="560.5,101.6 560.5,127.1 549.2,120.6 553.9,97.7 			"/>
			<polygon class="st3" points="571.8,120.6 560.5,127.1 560.5,101.6 567.2,97.7 			"/>
		</g>
		<line class="st0" x1="560.5" y1="97.7" x2="560.5" y2="73.9"/>
		<path class="st3" d="M567.2,71.4v11.4c0,3.7-3.2,6.9-8.1,9V80.4c2.1-0.9,3.9-2,5.3-3.3C566.1,75.4,567.2,73.4,567.2,71.4z"/>
		<circle class="st3" cx="560.5" cy="73.9" r="2"/>
		<polyline class="st0" points="562.4,223.6 562.4,211.9 569.6,210.8 569.6,222.4 		"/>
	</g>
	<g>
		<path class="st3" d="M154.2,329.6L154.2,329.6c-0.6,0-1-0.5-1-1v-11.8h2.1v11.8C155.2,329.1,154.8,329.6,154.2,329.6z"/>
		<g>
			<polygon class="st4" points="154.1,324.3 144.3,318.1 154.1,300.3 			"/>
			<polygon class="st3" points="154.1,300.3 164.8,318.1 154.1,324.3 			"/>
		</g>
		<g>
			<polygon class="st4" points="154.1,317.2 146.1,312.1 154.1,297.4 			"/>
			<polygon class="st3" points="154.1,297.4 163,312.1 154.1,317.2 			"/>
		</g>
		<g>
			<polygon class="st4" points="154.2,311.9 147.4,307.6 154.2,295.1 			"/>
			<polygon class="st3" points="154.2,295.1 161.7,307.6 154.2,311.9 			"/>
		</g>
	</g>
	<g>
		<path class="st3" d="M173.6,344.3L173.6,344.3c-0.6,0-1-0.5-1-1v-11.8h2.1v11.8C174.6,343.9,174.2,344.3,173.6,344.3z"/>
		<g>
			<polygon class="st4" points="173.5,339 163.7,332.8 173.5,315 			"/>
			<polygon class="st3" points="173.5,315 184.2,332.8 173.5,339 			"/>
		</g>
		<g>
			<polygon class="st4" points="173.5,331.9 165.5,326.8 173.5,312.1 			"/>
			<polygon class="st3" points="173.5,312.1 182.4,326.8 173.5,331.9 			"/>
		</g>
		<g>
			<polygon class="st4" points="173.6,326.6 166.8,322.3 173.6,309.8 			"/>
			<polygon class="st3" points="173.6,309.8 181.2,322.3 173.6,326.6 			"/>
		</g>
	</g>
	<g>
		<path class="st3" d="M158,381.1L158,381.1c-0.6,0-1-0.5-1-1v-11.8h2.1V380C159,380.6,158.5,381.1,158,381.1z"/>
		<g>
			<polygon class="st4" points="157.8,375.7 148.1,369.5 157.8,351.8 			"/>
			<polygon class="st3" points="157.8,351.8 168.6,369.5 157.8,375.7 			"/>
		</g>
		<g>
			<polygon class="st4" points="157.9,368.6 149.8,363.5 157.9,348.8 			"/>
			<polygon class="st3" points="157.9,348.8 166.8,363.5 157.9,368.6 			"/>
		</g>
		<g>
			<polygon class="st4" points="158,363.4 151.1,359 158,346.5 			"/>
			<polygon class="st3" points="158,346.5 165.5,359 158,363.4 			"/>
		</g>
	</g>
	<path class="st0" d="M455.9,177.5l89.7,52.1c2.4,1.4,2.4,4.8,0,6.2L367.1,339.5c-3.7,2.2-8.3,2.2-12.1,0L205.3,253"/>
	<g>
		<path class="st3" d="M499.7,225.8L499.7,225.8c-0.6,0-1-0.5-1-1V213h2.1v11.8C500.8,225.4,500.3,225.8,499.7,225.8z"/>
		<g>
			<polygon class="st4" points="499.6,220.5 489.8,214.3 499.6,196.5 			"/>
			<polygon class="st3" points="499.6,196.5 510.3,214.3 499.6,220.5 			"/>
		</g>
		<g>
			<polygon class="st4" points="499.7,213.4 491.6,208.3 499.7,193.6 			"/>
			<polygon class="st3" points="499.7,193.6 508.6,208.3 499.7,213.4 			"/>
		</g>
		<g>
			<polygon class="st4" points="499.7,208.1 492.9,203.8 499.7,191.3 			"/>
			<polygon class="st3" points="499.7,191.3 507.3,203.8 499.7,208.1 			"/>
		</g>
	</g>
	<g>
		<g>
			<polygon class="st4" points="297.1,388.9 297.1,476.4 202.3,421.6 202.3,334.1 			"/>
			<polygon class="st3" points="341.5,363.2 341.5,450.7 297.1,476.4 297.1,388.9 			"/>
			<polygon class="st8" points="212.6,367.5 212.6,355.9 208.5,353.5 208.5,365.2 			"/>
			<polygon class="st8" points="222.7,373.3 222.7,361.7 218.6,359.3 218.6,370.9 			"/>
			<polygon class="st8" points="232.8,379.2 232.8,367.5 228.7,365.2 228.7,376.8 			"/>
			<polygon class="st8" points="242.9,385 242.9,373.4 238.7,371 238.7,382.6 			"/>
			<polyline class="st8" points="271.9,461.8 271.9,449.9 256.3,440.9 256.3,452.7 			"/>
			<polyline class="st0" points="347.5,355 347.5,359.8 341.5,363.2 			"/>
			<polygon class="st3" points="347.5,355 297.1,384.1 196.3,325.9 246.7,296.8 			"/>
			<polygon class="st0" points="246.7,300.2 246.7,303.7 205.3,327.6 202.3,325.9 			"/>
			<polygon class="st4" points="341.5,355 338.5,356.7 246.7,303.7 246.7,300.2 			"/>
			<polygon class="st0" points="338.5,356.7 297.1,380.6 205.3,327.6 246.7,303.7 			"/>
			<polyline class="st7" points="297.1,388.9 297.1,384.1 196.3,325.9 196.3,330.7 202.3,334.1 			"/>
			<polyline class="st0" points="202.3,334.1 213.2,340.4 297.1,388.9 			"/>
			<g>
				<polygon class="st0" points="341.5,379 297.1,404.7 297.1,416.3 341.5,390.7 				"/>
				<line class="st0" x1="317" y1="393.2" x2="317" y2="404.8"/>
				<line class="st0" x1="333.6" y1="383.6" x2="333.6" y2="395.2"/>
				<polygon class="st0" points="341.5,396.3 297.1,421.9 297.1,433.5 341.5,407.9 				"/>
				<line class="st0" x1="317" y1="410.4" x2="317" y2="422"/>
				<line class="st0" x1="333.6" y1="400.8" x2="333.6" y2="412.4"/>
			</g>
			<g>
				<polygon class="st0" points="243.9,318.3 243.9,321.2 233.3,327.3 230.8,325.9 				"/>
				<polygon class="st4" points="256.9,325.9 254.4,327.3 243.9,321.2 243.9,318.3 				"/>
				<polygon class="st3" points="254.4,327.3 243.9,333.4 233.3,327.3 243.9,321.2 				"/>
			</g>
			<g>
				<polygon class="st0" points="270,333.4 270,336.3 259.5,342.4 256.9,341 				"/>
				<polygon class="st4" points="283.1,341 280.6,342.4 270,336.3 270,333.4 				"/>
				<polygon class="st3" points="280.6,342.4 270,348.5 259.5,342.4 270,336.3 				"/>
			</g>
			<polygon class="st9" points="297.1,388.9 202.3,334.1 202.3,339.2 297.1,394.1 			"/>
			<polyline class="st8" points="297.1,404.7 262,384.4 262,396 297.1,416.3 			"/>
			<polyline class="st8" points="297.1,421.9 262,401.6 262,413.3 297.1,433.5 			"/>
			<line class="st8" x1="269.8" y1="388.9" x2="269.8" y2="400.3"/>
			<line class="st8" x1="269.8" y1="406.1" x2="269.8" y2="417.8"/>
		</g>
		<g>
			<polygon class="st7" points="202.2,416.4 199.2,423.2 160.1,400.4 163.1,393.7 			"/>
			<polygon class="st3" points="241.3,393.7 202.2,416.4 163.1,393.7 202.2,371 			"/>
			<polygon class="st3" points="241.3,393.7 241.3,444.1 199.2,468.6 199.2,423.2 202.2,416.4 			"/>
			<polygon class="st4" points="199.2,423.2 199.2,468.6 160.1,445.9 160.1,400.4 			"/>
			<polyline class="st6" points="176.5,455.4 176.5,443.7 172.4,441.4 172.4,453 			"/>
			<polyline class="st8" points="184.8,460.2 184.8,448.6 180.7,446.2 180.7,457.8 			"/>
			<polyline class="st0" points="213.6,460.2 213.6,448.3 229.2,439.2 229.2,451.1 			"/>
			<g>
				<polygon class="st0" points="201.9,387.1 201.9,390 191.4,396.1 188.9,394.7 				"/>
				<polygon class="st4" points="215,394.7 212.5,396.1 201.9,390 201.9,387.1 				"/>
				<polygon class="st3" points="212.5,396.1 201.9,402.2 191.4,396.1 201.9,390 				"/>
			</g>
		</g>
	</g>
	<g>
		<path class="st3" d="M611.5,412.1L611.5,412.1c-0.6,0-1-0.5-1-1v-11.8h2.1v11.8C612.6,411.7,612.1,412.1,611.5,412.1z"/>
		<g>
			<polygon class="st4" points="611.4,406.8 601.6,400.6 611.4,382.8 			"/>
			<polygon class="st3" points="611.4,382.8 622.1,400.6 611.4,406.8 			"/>
		</g>
		<g>
			<polygon class="st4" points="611.5,399.7 603.4,394.6 611.5,379.9 			"/>
			<polygon class="st3" points="611.5,379.9 620.4,394.6 611.5,399.7 			"/>
		</g>
		<g>
			<polygon class="st4" points="611.5,394.4 604.7,390.1 611.5,377.6 			"/>
			<polygon class="st3" points="611.5,377.6 619.1,390.1 611.5,394.4 			"/>
		</g>
	</g>
	<g>
		<path class="st3" d="M632.5,399.4L632.5,399.4c-0.6,0-1-0.5-1-1v-11.8h2.1v11.8C633.5,398.9,633.1,399.4,632.5,399.4z"/>
		<g>
			<polygon class="st4" points="632.3,394.1 622.6,387.9 632.3,370.1 			"/>
			<polygon class="st3" points="632.3,370.1 643.1,387.9 632.3,394.1 			"/>
		</g>
		<g>
			<polygon class="st4" points="632.4,387 624.4,381.8 632.4,367.2 			"/>
			<polygon class="st3" points="632.4,367.2 641.3,381.8 632.4,387 			"/>
		</g>
		<g>
			<polygon class="st4" points="632.5,381.7 625.6,377.3 632.5,364.9 			"/>
			<polygon class="st3" points="632.5,364.9 640,377.3 632.5,381.7 			"/>
		</g>
	</g>
	<g>
		<g>
			<line class="st0" x1="437.7" y1="209.7" x2="437.7" y2="218.5"/>
			<circle class="st3" cx="437.7" cy="207.9" r="1.8"/>
		</g>
		<g>
			<line class="st0" x1="450.4" y1="219.3" x2="450.4" y2="228.1"/>
			<circle class="st3" cx="450.4" cy="217.6" r="1.8"/>
		</g>
	</g>
	<g>
		<g>
			<line class="st0" x1="621.4" y1="435.1" x2="621.4" y2="443.9"/>
			<circle class="st3" cx="621.4" cy="433.3" r="1.8"/>
		</g>
		<g>
			<line class="st0" x1="608.7" y1="444.7" x2="608.7" y2="453.5"/>
			<circle class="st3" cx="608.7" cy="442.9" r="1.8"/>
		</g>
	</g>
	<g>
		<path class="st1" d="M479.6,206.8c0,0-5.1,1.4-7.3,0.9c-1.2-0.3-2.2-1.3-2.8-1.6c-0.6-0.3-4.2-0.3-5.2-3c-1.1-2.7,2.7-4.2,5.2-4
			C472,199.2,479.6,206.8,479.6,206.8z"/>
		<g>
			<path class="st1" d="M479.6,206.8c-0.5,0-1.1-0.1-1.6-0.4c-1.7-0.8-3.5-2.2-5.5-3.8c-0.7-0.5-1.6-1.3-2.3-1.9
				c-1.1-0.9-0.9-2.8,0.5-3.2c0,0,0,0,0.1,0c0,0-0.3,1.5,0.9,2.2c1.2,0.8,3.2,2.6,3.5,2.6s1.5-0.7,2.3,0.5c0.9,1.1,0.7,1.9,1.1,2.3
				C479,205.6,480,206.4,479.6,206.8z"/>
			<path class="st0" d="M470.2,200.8c-1.1-0.9-0.9-2.8,0.5-3.2c0,0,0.1,0,0.1,0c1-2.6,3.8-3.3,5.5-2.7c2.2,0.9,2.1,2.2,2.9,2.6
				c0.9,0.4,2.1-0.4,3.1,2c0.7,1.6,3.1,3.1,1.4,5.2c-1.7,2.1-4,2.5-5.7,1.7s-3.5-2.2-5.5-3.8C471.8,202.1,470.9,201.4,470.2,200.8z"
				/>
			<path class="st0" d="M479.2,197.5c0,0-1.3-0.5-2.1,0.8"/>
			<path class="st0" d="M473.8,199.2c0,0,0.9-0.5,1.4,0.6"/>
		</g>
	</g>
	<g>
		<path class="st1" d="M458.1,194.7c0,0-5.1,1.4-7.3,0.9c-1.2-0.3-2.2-1.3-2.8-1.6c-0.6-0.3-4.2-0.3-5.2-3c-1.1-2.7,2.7-4.2,5.2-4
			C450.5,187.1,458.1,194.7,458.1,194.7z"/>
		<g>
			<path class="st1" d="M458.1,194.7c-0.5,0-1.1-0.1-1.6-0.4c-1.7-0.8-3.5-2.2-5.5-3.8c-0.7-0.5-1.6-1.3-2.3-1.9
				c-1.1-0.9-0.9-2.8,0.5-3.2c0,0,0,0,0.1,0c0,0-0.3,1.5,0.9,2.2c1.2,0.8,3.2,2.6,3.5,2.6s1.5-0.7,2.3,0.5c0.9,1.1,0.7,1.9,1.1,2.3
				C457.6,193.5,458.6,194.2,458.1,194.7z"/>
			<path class="st0" d="M448.7,188.7c-1.1-0.9-0.9-2.8,0.5-3.2c0,0,0.1,0,0.1,0c1-2.6,3.8-3.3,5.5-2.7c2.2,0.9,2.1,2.2,2.9,2.6
				c0.9,0.4,2.1-0.4,3.1,2c0.7,1.6,3.1,3.1,1.4,5.2c-1.7,2.1-4,2.5-5.7,1.7s-3.5-2.2-5.5-3.8C450.3,190,449.4,189.2,448.7,188.7z"/>
			<path class="st0" d="M457.7,185.4c0,0-1.3-0.5-2.1,0.8"/>
			<path class="st0" d="M452.4,187.1c0,0,0.9-0.5,1.4,0.6"/>
		</g>
	</g>
	<path class="st0" d="M536.2,306.4c0,0-0.5,3.5-1.5,5.8"/>
	<g>
		<polygon class="st1" points="373.8,270.7 256.4,202.5 178.2,247.9 295.6,316.1 335.6,316.1 332.3,294.8 		"/>
		<g>
			<path class="st3" d="M420.8,115.2V152c0,3.3-1.2,6.4-3.5,8.8l-0.1,0.1c-2.2,2.4-3.5,5.5-3.5,8.8v100.9l-78.2,45.4l19.6-143.4
				c1.8-13.4,9.8-25.3,21.5-32L420.8,115.2z"/>
			<polyline class="st0" points="407.7,274.2 407.7,262.6 385.1,275.7 385.1,287.4 			"/>
			<line class="st0" x1="404" y1="264.8" x2="404" y2="276.4"/>
			<g>
				<polygon class="st3" points="417.7,174.1 377.4,197.4 375.5,196.2 413.8,174.1 413.8,171.8 				"/>
				<polygon class="st3" points="417.7,174.1 417.7,179.3 377.4,202.6 377.4,197.4 				"/>
				<polygon class="st4" points="377.4,197.4 377.4,202.6 375.5,201.4 375.5,196.2 				"/>
			</g>
			<polygon class="st4" points="355.2,172.7 335.6,316.1 218.2,247.9 237.8,104.5 			"/>
			<path class="st3" d="M420.8,115.2l-44.1,25.5c-11.7,6.8-19.7,18.6-21.5,32l-117.4-68.2c1.8-13.4,9.8-25.3,21.5-32L303.5,47
				L420.8,115.2z"/>
			<g>
				<polygon class="st3" points="417.7,189.7 377.4,213 375.5,211.8 413.8,189.7 413.8,187.4 				"/>
				<polygon class="st3" points="417.7,189.7 417.7,194.9 377.4,218.2 377.4,213 				"/>
				<polygon class="st4" points="377.4,213 377.4,218.2 375.5,217 375.5,211.8 				"/>
			</g>
			<g>
				<polygon class="st3" points="417.7,220.7 377.4,244 375.5,242.8 413.8,220.7 413.8,218.4 				"/>
				<polygon class="st3" points="417.7,220.7 417.7,225.9 377.4,249.2 377.4,244 				"/>
				<polygon class="st4" points="377.4,244 377.4,249.2 375.5,248 375.5,242.8 				"/>
			</g>
			<g>
				<polygon class="st3" points="417.7,236.3 377.4,259.6 375.5,258.4 413.8,236.3 413.8,234 				"/>
				<polygon class="st3" points="417.7,236.3 417.7,241.5 377.4,264.8 377.4,259.6 				"/>
				<polygon class="st4" points="377.4,259.6 377.4,264.8 375.5,263.6 375.5,258.4 				"/>
			</g>
			<g>
				<polygon class="st0" points="308.2,67 308.2,70.1 276.7,88.9 274,87.4 				"/>
				<g>
					<polygon class="st4" points="384.9,111.5 382.2,113.1 308.2,70.1 308.2,67 					"/>
					<polygon class="st0" points="382.2,113.1 350.4,131.5 276.7,88.9 308.2,70.1 					"/>
				</g>
				<g>
					<polygon class="st4" points="384.9,111.5 382.2,113.1 308.2,70.1 308.2,67 					"/>
					<polygon class="st3" points="382.2,113.1 350.4,131.5 276.7,88.9 308.2,70.1 					"/>
				</g>
				<line class="st3" x1="303.5" y1="73" x2="303.5" y2="104.5"/>
				<g>
					<g>
						<line class="st4" x1="350.4" y1="131.5" x2="382.2" y2="113.1"/>
					</g>
					<line class="st4" x1="342.2" y1="126.7" x2="373.9" y2="108.3"/>
					<line class="st4" x1="334.1" y1="122" x2="365.7" y2="103.6"/>
					<line class="st4" x1="325.9" y1="117.2" x2="357.5" y2="98.8"/>
					<line class="st4" x1="317.8" y1="112.5" x2="349.3" y2="94"/>
					<line class="st4" x1="309.6" y1="107.7" x2="341.1" y2="89.2"/>
					<line class="st4" x1="301.5" y1="103" x2="332.9" y2="84.5"/>
					<line class="st4" x1="293.3" y1="98.2" x2="324.6" y2="79.7"/>
					<line class="st4" x1="285.2" y1="93.5" x2="316.4" y2="74.9"/>
					<g>
						<line class="st4" x1="277" y1="88.7" x2="308.2" y2="70.1"/>
					</g>
				</g>
			</g>
		</g>
		<g>
			<polyline class="st4" points="218.2,247.9 219.1,241.6 228.6,171.8 237.8,104.5 			"/>
			<polyline class="st4" points="237.8,259.3 248.2,183.2 257.4,115.9 			"/>
			<polyline class="st4" points="257.4,270.7 267.8,194.6 277,127.2 			"/>
			<polyline class="st4" points="276.9,282 287.3,205.9 296.5,138.6 			"/>
			<polyline class="st4" points="296.5,293.4 306.9,217.3 316.1,150 			"/>
			<polyline class="st4" points="316,304.8 326.5,228.7 335.7,161.3 			"/>
			<polyline class="st4" points="335.6,316.1 346,240 355.2,172.7 			"/>
		</g>
		<polyline class="st0" points="341.5,276.6 268.7,234.5 223.7,208.5 		"/>
		<polyline class="st8" points="336.8,309.6 264,267.5 219.1,241.6 		"/>
		<polyline class="st0" points="350.3,209 268.7,161.9 232.8,141.1 		"/>
	</g>
	<g>
		<g>
			<polyline class="st1" points="547.4,343.1 543.7,340.9 526.6,350.8 530.3,353 547.4,343.1 			"/>
		</g>
		<polyline class="st0" points="583.2,322.2 579.5,320.1 562.4,330 566.1,332.2 583.2,322.2 		"/>
		<polyline class="st1" points="619.1,301.4 615.3,299.2 598.2,309.2 602,311.4 619.1,301.4 		"/>
		<polyline class="st0" points="645.2,281.9 634.1,288.4 637.8,290.5 651.8,282.4 		"/>
	</g>
	<polygon class="st3" points="421.1,311.4 421.1,308.1 424.3,313.3 	"/>
	<polygon class="st3" points="443.7,298.3 443.7,295 446.9,300.2 	"/>
	<polygon class="st3" points="443.7,295 421.1,308.1 424.3,313.3 446.9,300.2 	"/>
	<g>
		<polygon class="st1" points="662,329.1 650.2,329.1 670.4,340.7 682.2,340.7 		"/>
		<polygon class="st5" points="662,329.1 662,315.8 682.2,327.5 682.2,340.7 		"/>
		<g>
			<path class="st0" d="M690.4,324.6c-1-0.5-2.1-0.5-3.2,0.1l-5,2.8l-10.1-5.8l-10.1-5.8l5-2.8c1.1-0.6,2.3-0.5,3.3,0l0.2,0.1
				L690.4,324.6z"/>
			<polyline class="st0" points="662,329.1 662,315.8 672.1,321.6 			"/>
			<polygon class="st0" points="662,329.1 662,315.8 682.2,327.5 682.2,340.7 			"/>
			<path class="st0" d="M692.3,327.6v7.3l-10.1,5.8v-13.3l5-2.8c1.1-0.6,2.3-0.6,3.2-0.1l0.2,0.1
				C691.6,325.3,692.3,326.4,692.3,327.6z"/>
			<line class="st0" x1="690.4" y1="324.6" x2="690.7" y2="324.8"/>
		</g>
		<g>
			<defs>
				<polygon id="SVGID_1_" points="662,329.1 662,315.8 682.2,327.5 682.2,340.7 				"/>
			</defs>
			<clipPath id="SVGID_00000121999702151303160180000004808118836986565537_">
				<use xlink:href="#SVGID_1_"  style="overflow:visible;"/>
			</clipPath>
			<g style="clip-path:url(#SVGID_00000121999702151303160180000004808118836986565537_);">
				<polyline class="st0" points="682.2,340.7 683.8,339.8 665,328.9 663.7,328.1 662,329.1 				"/>
			</g>
			<g style="clip-path:url(#SVGID_00000121999702151303160180000004808118836986565537_);">
				<polyline class="st0" points="688.1,340.3 689.7,339.4 670.8,328.5 669.6,327.7 667.9,328.7 				"/>
			</g>
			<g style="clip-path:url(#SVGID_00000121999702151303160180000004808118836986565537_);">
				<polyline class="st0" points="685.1,340.5 686.8,339.6 667.9,328.7 666.6,327.9 665,328.9 				"/>
			</g>
			<g style="clip-path:url(#SVGID_00000121999702151303160180000004808118836986565537_);">
				<polyline class="st0" points="691,340.1 692.6,339.1 673.8,328.2 672.5,327.5 670.8,328.5 				"/>
			</g>
			<g style="clip-path:url(#SVGID_00000121999702151303160180000004808118836986565537_);">
				<polyline class="st0" points="693.9,339.9 695.6,338.9 676.7,328 675.4,327.3 673.8,328.2 				"/>
			</g>
		</g>
	</g>
	<g>
		<g>
			<polygon class="st3" points="597.6,417.5 597.6,422.3 591.6,425.8 591.6,463.3 496.8,518 452.4,492.4 452.4,454.9 446.4,451.4 
				446.4,446.6 547.2,388.4 			"/>
			<polygon class="st4" points="496.8,480.5 496.8,518 452.4,492.4 452.4,454.9 			"/>
			<polyline class="st0" points="597.6,417.5 597.6,422.4 496.8,480.5 			"/>
			<polygon class="st7" points="496.8,475.7 496.8,480.5 452.4,454.9 446.4,451.5 446.4,446.6 			"/>
			<line class="st0" x1="591.6" y1="463.3" x2="496.8" y2="518"/>
			<polygon class="st0" points="597.6,417.5 496.8,475.7 446.4,446.6 547.2,388.4 			"/>
			<polygon class="st4" points="591.6,417.5 588.6,419.3 547.2,395.4 547.2,391.9 			"/>
			<polygon class="st0" points="588.6,419.3 496.8,472.3 455.4,448.4 452.4,446.6 547.2,391.9 547.2,395.4 			"/>
			<line class="st0" x1="547.2" y1="395.4" x2="455.4" y2="448.4"/>
			<line class="st0" x1="591.6" y1="463.3" x2="591.6" y2="425.8"/>
			<g>
				<polygon class="st0" points="550,409.8 550,412.7 539.5,418.8 536.9,417.4 				"/>
				<polygon class="st4" points="563.1,417.4 560.6,418.8 550,412.7 550,409.8 				"/>
				<polygon class="st3" points="560.6,418.8 550,424.9 539.5,418.8 550,412.7 				"/>
			</g>
			<g>
				<polygon class="st0" points="523.9,424.9 523.9,427.8 513.3,433.9 510.8,432.5 				"/>
				<polygon class="st4" points="536.9,432.5 534.4,433.9 523.9,427.8 523.9,424.9 				"/>
				<polygon class="st3" points="534.4,433.9 523.9,440 513.3,433.9 523.9,427.8 				"/>
			</g>
			<polygon class="st9" points="496.8,480.5 452.4,454.9 452.4,458.9 496.8,484.4 			"/>
		</g>
		<polyline class="st8" points="480.7,508.8 480.7,496.8 465.1,487.8 465.1,499.7 		"/>
		<polyline class="st0" points="515.4,507.5 515.4,495.5 562.8,468.1 562.8,479.9 		"/>
		<polygon class="st8" points="489.4,506.3 489.4,501.8 485.3,499.4 485.3,503.9 		"/>
		<path class="st3" d="M562.8,468.1c0,0,3.5,0.9,5.5,4.9l-47.4,27.4c-1.9-4.1-5.5-4.9-5.5-4.9L562.8,468.1z"/>
		<g>
			<line class="st0" x1="553.9" y1="467.2" x2="559.8" y2="463.7"/>
			<line class="st0" x1="542" y1="474" x2="548" y2="470.6"/>
			<line class="st0" x1="530.2" y1="480.9" x2="536.1" y2="477.4"/>
			<line class="st0" x1="518.3" y1="487.7" x2="524.3" y2="484.3"/>
		</g>
		<polygon class="st8" points="460.5,489.6 460.5,485.1 456.4,482.8 456.4,487.2 		"/>
	</g>
	<path class="st1" d="M430.4,515.6c-0.3-0.4-1-0.7-1.6-0.7l-5.2,0.4l-10.1-6.2l-4.3,2.7l-1.3-0.8l-3.2,2l-1-0.6l-10.2,6.3l16.8,4.6
		l0.2-0.9l5.2,1.4l0.2-1.1l7,1.9l1.5-7.7l5.3-0.4C430.4,516.4,430.7,516.1,430.4,515.6z"/>
	<g>
		<path class="st3" d="M429.5,516.4L429.5,516.4c-0.6,0-1-0.5-1-1v-11.8h2.1v11.8C430.5,515.9,430,516.4,429.5,516.4z"/>
		<g>
			<polygon class="st4" points="429.3,511.1 419.6,504.9 429.3,487.1 			"/>
			<polygon class="st3" points="429.3,487.1 440.1,504.9 429.3,511.1 			"/>
		</g>
		<g>
			<polygon class="st4" points="429.4,504 421.3,498.8 429.4,484.2 			"/>
			<polygon class="st3" points="429.4,484.2 438.3,498.8 429.4,504 			"/>
		</g>
		<g>
			<polygon class="st4" points="429.5,498.7 422.6,494.3 429.5,481.9 			"/>
			<polygon class="st3" points="429.5,481.9 437,494.3 429.5,498.7 			"/>
		</g>
	</g>
	<g>
		<path class="st1" d="M281.7,492.1c-0.3-0.4-1-0.7-1.6-0.7l-5.2,0.4l-10.1-6.2l-4.3,2.7l-1.3-0.8l-3.2,2l-1-0.6l-10.2,6.3l16.8,4.6
			l0.2-0.9l5.2,1.4l0.2-1.1l7,1.9l1.5-7.7l5.3-0.4C281.7,493,281.9,492.6,281.7,492.1z"/>
		<g>
			<path class="st3" d="M280.8,492.9L280.8,492.9c-0.6,0-1-0.5-1-1V480h2.1v11.8C281.8,492.5,281.3,492.9,280.8,492.9z"/>
			<g>
				<polygon class="st4" points="280.6,487.6 270.8,481.4 280.6,463.6 				"/>
				<polygon class="st3" points="280.6,463.6 291.4,481.4 280.6,487.6 				"/>
			</g>
			<g>
				<polygon class="st4" points="280.7,480.5 272.6,475.4 280.7,460.7 				"/>
				<polygon class="st3" points="280.7,460.7 289.6,475.4 280.7,480.5 				"/>
			</g>
			<g>
				<polygon class="st4" points="280.8,475.2 273.9,470.9 280.8,458.4 				"/>
				<polygon class="st3" points="280.8,458.4 288.3,470.9 280.8,475.2 				"/>
			</g>
		</g>
	</g>
	<g>
		<g>
			<line class="st0" x1="218.2" y1="475.5" x2="218.2" y2="484.3"/>
			<circle class="st3" cx="218.2" cy="473.7" r="1.8"/>
		</g>
		<g>
			<line class="st0" x1="230.9" y1="485.1" x2="230.9" y2="493.9"/>
			<circle class="st3" cx="230.9" cy="483.4" r="1.8"/>
		</g>
	</g>
	<g>
		<path class="st1" d="M254.9,510.5c0,0-5.1,1.4-7.3,0.9c-1.2-0.3-2.2-1.3-2.8-1.6c-0.6-0.3-4.2-0.3-5.2-3c-1.1-2.7,2.7-4.2,5.2-4
			S254.9,510.5,254.9,510.5z"/>
		<g>
			<path class="st1" d="M254.9,510.5c-0.5,0-1.1-0.1-1.6-0.4c-1.7-0.8-3.5-2.2-5.5-3.8c-0.7-0.5-1.6-1.3-2.3-1.9
				c-1.1-0.9-0.9-2.8,0.5-3.2c0,0,0,0,0.1,0c0,0-0.3,1.5,0.9,2.2c1.2,0.8,3.2,2.6,3.5,2.6s1.5-0.7,2.3,0.5c0.9,1.1,0.7,1.9,1.1,2.3
				C254.4,509.3,255.4,510.1,254.9,510.5z"/>
			<path class="st0" d="M245.5,504.5c-1.1-0.9-0.9-2.8,0.5-3.2c0,0,0.1,0,0.1,0c1-2.6,3.8-3.3,5.5-2.7c2.2,0.9,2.1,2.2,2.9,2.6
				c0.9,0.4,2.1-0.4,3.1,2c0.7,1.6,3.1,3.1,1.4,5.2s-4,2.5-5.7,1.7c-1.7-0.8-3.5-2.2-5.5-3.8C247.1,505.8,246.2,505.1,245.5,504.5z"
				/>
			<path class="st0" d="M254.5,501.3c0,0-1.3-0.5-2.1,0.8"/>
			<path class="st0" d="M249.1,502.9c0,0,0.9-0.5,1.4,0.6"/>
		</g>
	</g>
	<g>
		<path class="st1" d="M591.2,486.1c0,0,5.1,1.4,7.3,0.9c1.2-0.3,2.2-1.3,2.8-1.6c0.6-0.3,4.2-0.3,5.2-3c1.1-2.7-2.7-4.2-5.2-4
			C598.8,478.5,591.2,486.1,591.2,486.1z"/>
		<g>
			<path class="st1" d="M591.2,486.1c0.5,0,1.1-0.1,1.6-0.4c1.7-0.8,3.5-2.2,5.5-3.8c0.7-0.5,1.6-1.3,2.3-1.9
				c1.1-0.9,0.9-2.8-0.5-3.2c0,0,0,0-0.1,0c0,0,0.3,1.5-0.9,2.2c-1.2,0.8-3.2,2.6-3.5,2.6s-1.5-0.7-2.3,0.5
				c-0.9,1.1-0.7,1.9-1.1,2.3C591.7,484.9,590.7,485.6,591.2,486.1z"/>
			<path class="st0" d="M600.6,480.1c1.1-0.9,0.9-2.8-0.5-3.2c0,0-0.1,0-0.1,0c-1-2.6-3.8-3.3-5.5-2.7c-2.2,0.9-2.1,2.2-2.9,2.6
				s-2.1-0.4-3.1,2c-0.7,1.6-3.1,3.1-1.4,5.2c1.7,2.1,4,2.5,5.7,1.7c1.7-0.8,3.5-2.2,5.5-3.8C599,481.4,599.9,480.6,600.6,480.1z"/>
			<path class="st0" d="M591.6,476.8c0,0,1.3-0.5,2.1,0.8"/>
			<path class="st0" d="M597,478.4c0,0-0.9-0.5-1.4,0.6"/>
		</g>
	</g>
	<g>
		<path class="st1" d="M565.1,501.9c0,0,5.1,1.4,7.3,0.9c1.2-0.3,2.2-1.3,2.8-1.6c0.6-0.3,4.2-0.3,5.2-3c1.1-2.7-2.7-4.2-5.2-4
			C572.7,494.3,565.1,501.9,565.1,501.9z"/>
		<g>
			<path class="st1" d="M565.1,501.9c0.5,0,1.1-0.1,1.6-0.4c1.7-0.8,3.5-2.2,5.5-3.8c0.7-0.5,1.6-1.3,2.3-1.9
				c1.1-0.9,0.9-2.8-0.5-3.2c0,0,0,0-0.1,0c0,0,0.3,1.5-0.9,2.2c-1.2,0.8-3.2,2.6-3.5,2.6s-1.5-0.7-2.3,0.5
				c-0.9,1.1-0.7,1.9-1.1,2.3C565.6,500.7,564.6,501.5,565.1,501.9z"/>
			<path class="st0" d="M574.5,495.9c1.1-0.9,0.9-2.8-0.5-3.2c0,0-0.1,0-0.1,0c-1-2.6-3.8-3.3-5.5-2.7c-2.2,0.9-2.1,2.2-2.9,2.6
				c-0.9,0.4-2.1-0.4-3.1,2c-0.7,1.6-3.1,3.1-1.4,5.2c1.7,2.1,4,2.5,5.7,1.7c1.7-0.8,3.5-2.2,5.5-3.8
				C572.9,497.2,573.8,496.4,574.5,495.9z"/>
			<path class="st0" d="M565.5,492.6c0,0,1.3-0.5,2.1,0.8"/>
			<path class="st0" d="M570.9,494.3c0,0-0.9-0.5-1.4,0.6"/>
		</g>
	</g>
	<g>
		<path class="st1" d="M451.5,549.9c0,0-5.1,1.4-7.3,0.9c-1.2-0.3-2.2-1.3-2.8-1.6c-0.6-0.3-4.2-0.3-5.2-3c-1.1-2.7,2.7-4.2,5.2-4
			C443.8,542.3,451.5,549.9,451.5,549.9z"/>
		<g>
			<path class="st1" d="M451.5,549.9c-0.5,0-1.1-0.1-1.6-0.4c-1.7-0.8-3.5-2.2-5.5-3.8c-0.7-0.5-1.6-1.3-2.3-1.9
				c-1.1-0.9-0.9-2.8,0.5-3.2c0,0,0,0,0.1,0c0,0-0.3,1.5,0.9,2.2c1.2,0.8,3.2,2.6,3.5,2.6s1.5-0.7,2.3,0.5c0.9,1.1,0.7,1.9,1.1,2.3
				C450.9,548.7,451.9,549.4,451.5,549.9z"/>
			<path class="st0" d="M442.1,543.9c-1.1-0.9-0.9-2.8,0.5-3.2c0,0,0.1,0,0.1,0c1-2.6,3.8-3.3,5.5-2.7c2.2,0.9,2.1,2.2,2.9,2.6
				c0.9,0.4,2.1-0.4,3.1,2c0.7,1.6,3.1,3.1,1.4,5.2s-4,2.5-5.7,1.7s-3.5-2.2-5.5-3.8C443.7,545.2,442.8,544.4,442.1,543.9z"/>
			<path class="st0" d="M451.1,540.6c0,0-1.3-0.5-2.1,0.8"/>
			<path class="st0" d="M445.7,542.2c0,0,0.9-0.5,1.4,0.6"/>
		</g>
	</g>
	<g>
		<g>
			<g>
				<path class="st0" d="M361.7,334v-15.6c0-0.8-0.4-1.5-1.1-1.9l-2.7-1.5c-0.7-0.4-1.5-0.4-2.2,0l-1.5,0.9"/>
				<path class="st0" d="M356.1,316.4v0.6c0,0.2-0.1,0.5-0.3,0.6l-4.1,2.3c-0.2,0.1-0.5,0.1-0.7,0l-1.9-1.1
					c-0.2-0.1-0.3-0.3-0.3-0.6v-0.6c0-0.2,0.1-0.5,0.3-0.6l4.1-2.3c0.2-0.1,0.5-0.1,0.7,0l1.9,1.1
					C356,315.9,356.1,316.2,356.1,316.4z"/>
			</g>
		</g>
		<g>
			<g>
				<path class="st0" d="M364.5,449.8v-15.6c0-0.8,0.4-1.5,1.1-1.9l2.7-1.5c0.7-0.4,1.5-0.4,2.2,0l1.5,0.9"/>
				<path class="st0" d="M370.2,432.3v0.6c0,0.2,0.1,0.5,0.3,0.6l4.1,2.3c0.2,0.1,0.5,0.1,0.7,0l1.9-1.1c0.2-0.1,0.3-0.3,0.3-0.6
					v-0.6c0-0.2-0.1-0.5-0.3-0.6l-4.1-2.3c-0.2-0.1-0.5-0.1-0.7,0l-1.9,1.1C370.3,431.8,370.2,432,370.2,432.3z"/>
			</g>
		</g>
		<g>
			<path class="st0" d="M454.8,277.8v-15.6c0-0.8,0.4-1.5,1.1-1.9l2.7-1.5c0.7-0.4,1.5-0.4,2.2,0l1.5,0.9"/>
			<path class="st0" d="M460.5,260.2v0.6c0,0.2,0.1,0.5,0.3,0.6l4.1,2.3c0.2,0.1,0.5,0.1,0.7,0l1.9-1.1c0.2-0.1,0.3-0.3,0.3-0.6
				v-0.6c0-0.2-0.1-0.5-0.3-0.6l-4.1-2.3c-0.2-0.1-0.5-0.1-0.7,0l-1.9,1.1C460.6,259.8,460.5,260,460.5,260.2z"/>
		</g>
		<g>
			<path class="st0" d="M485.1,260.7v-15.6c0-0.8,0.4-1.5,1.1-1.9l2.7-1.5c0.7-0.4,1.5-0.4,2.2,0l1.5,0.9"/>
			<path class="st0" d="M490.7,243.1v0.6c0,0.2,0.1,0.5,0.3,0.6l4.1,2.3c0.2,0.1,0.5,0.1,0.7,0l1.9-1.1c0.2-0.1,0.3-0.3,0.3-0.6
				v-0.6c0-0.2-0.1-0.5-0.3-0.6l-4.1-2.3c-0.2-0.1-0.5-0.1-0.7,0l-1.9,1.1C490.8,242.7,490.7,242.9,490.7,243.1z"/>
		</g>
		<g>
			<path class="st0" d="M515.3,243.2v-15.6c0-0.8,0.4-1.5,1.1-1.9l2.7-1.5c0.7-0.4,1.5-0.4,2.2,0l1.5,0.9"/>
			<path class="st0" d="M520.9,225.7v0.6c0,0.2,0.1,0.5,0.3,0.6l4.1,2.3c0.2,0.1,0.5,0.1,0.7,0l1.9-1.1c0.2-0.1,0.3-0.3,0.3-0.6
				v-0.6c0-0.2-0.1-0.5-0.3-0.6l-4.1-2.3c-0.2-0.1-0.5-0.1-0.7,0l-1.9,1.1C521.1,225.2,520.9,225.4,520.9,225.7z"/>
		</g>
		<g>
			<path class="st0" d="M428.4,544.3v-15.6c0-0.8-0.4-1.5-1.1-1.9l-2.7-1.5c-0.7-0.4-1.5-0.4-2.2,0l-1.5,0.9"/>
			<path class="st0" d="M422.8,526.8v0.6c0,0.2-0.1,0.5-0.3,0.6l-4.1,2.3c-0.2,0.1-0.5,0.1-0.7,0l-1.9-1.1c-0.2-0.1-0.3-0.3-0.3-0.6
				V528c0-0.2,0.1-0.5,0.3-0.6l4.1-2.3c0.2-0.1,0.5-0.1,0.7,0l1.9,1.1C422.7,526.3,422.8,526.5,422.8,526.8z"/>
		</g>
		<g>
			<path class="st0" d="M398.2,527.2v-15.6c0-0.8-0.4-1.5-1.1-1.9l-2.7-1.5c-0.7-0.4-1.5-0.4-2.2,0l-1.5,0.9"/>
			<path class="st0" d="M392.6,509.7v0.6c0,0.2-0.1,0.5-0.3,0.6l-4.1,2.3c-0.2,0.1-0.5,0.1-0.7,0l-1.9-1.1c-0.2-0.1-0.3-0.3-0.3-0.6
				v-0.6c0-0.2,0.1-0.5,0.3-0.6l4.1-2.3c0.2-0.1,0.5-0.1,0.7,0l1.9,1.1C392.5,509.2,392.6,509.4,392.6,509.7z"/>
		</g>
	</g>
</g>
</svg>
